<svg width="25" height="25" viewBox="0 0 25 25" fill="none" xmlns="http://www.w3.org/2000/svg">
<g id="Icon">
<path id="Vector" d="M11.9385 24.585C12.0036 24.6501 12.0687 24.707 12.1338 24.7559C12.1989 24.8047 12.2559 24.8454 12.3047 24.8779C12.3047 24.8779 12.3128 24.8779 12.3291 24.8779C12.3617 24.9105 12.3983 24.9308 12.439 24.939C12.4797 24.9471 12.5244 24.9512 12.5732 24.9512C12.6058 24.9512 12.6424 24.9471 12.6831 24.939C12.7238 24.9308 12.7686 24.9105 12.8174 24.8779C12.8825 24.8454 12.9435 24.8047 13.0005 24.7559C13.0575 24.707 13.1185 24.6501 13.1836 24.585C13.1836 24.585 13.5661 24.1374 14.3311 23.2422C15.096 22.347 15.9546 21.1914 16.9067 19.7754C17.8589 18.3594 18.7663 16.7725 19.6289 15.0146C20.4915 13.2731 21.0124 11.5479 21.1914 9.83887C21.2077 9.65983 21.224 9.48079 21.2402 9.30176C21.2565 9.12272 21.2646 8.94369 21.2646 8.76465C21.2646 7.54395 21.0368 6.40462 20.5811 5.34668C20.109 4.28874 19.4784 3.361 18.689 2.56348C17.8996 1.76595 16.9759 1.13932 15.918 0.683594C14.8438 0.227865 13.7044 0 12.5 0C11.2956 0 10.1562 0.227865 9.08203 0.683594C8.02409 1.13932 7.10042 1.76595 6.31104 2.56348C5.52165 3.361 4.89095 4.28874 4.41895 5.34668C3.96322 6.40462 3.73535 7.54395 3.73535 8.76465C3.73535 8.94369 3.74349 9.12272 3.75977 9.30176C3.77604 9.48079 3.79232 9.65983 3.80859 9.83887C4.00391 11.5479 4.53288 13.2812 5.39551 15.0391C6.27441 16.7806 7.19401 18.3594 8.1543 19.7754C9.11458 21.1914 9.98535 22.347 10.7666 23.2422C11.5479 24.1374 11.9385 24.585 11.9385 24.585ZM12.5 3.125C13.2812 3.125 14.0137 3.27148 14.6973 3.56445C15.3809 3.85742 15.9749 4.26025 16.4795 4.77295C16.984 5.28564 17.391 5.88379 17.7002 6.56738C17.9932 7.25098 18.1396 7.9834 18.1396 8.76465C18.1396 9.52962 17.9932 10.262 17.7002 10.9619C17.391 11.6455 16.984 12.2396 16.4795 12.7441C15.9749 13.2487 15.3809 13.6475 14.6973 13.9404C14.0137 14.2497 13.2812 14.4043 12.5 14.4043C11.7188 14.4043 10.9863 14.2497 10.3027 13.9404C9.61914 13.6475 9.02506 13.2487 8.52051 12.7441C8.01595 12.2396 7.60905 11.6455 7.2998 10.9619C7.00684 10.262 6.86035 9.52962 6.86035 8.76465C6.86035 7.9834 7.00684 7.25098 7.2998 6.56738C7.60905 5.88379 8.01595 5.28564 8.52051 4.77295C9.02506 4.26025 9.61914 3.85742 10.3027 3.56445C10.9863 3.27148 11.7188 3.125 12.5 3.125Z" fill="#FD6A96"/>
</g>
</svg>
